<?xml version="1.0" encoding="UTF-8" standalone="no"?>
<!-- Created with Inkscape (http://www.inkscape.org/) -->

<svg
   version="1.1"
   id="svg1"
   width="250"
   height="250"
   viewBox="0 0 250.00001 250"
   sodipodi:docname="air3_2.jpg"
   xml:space="preserve"
   inkscape:version="1.3 (0e150ed6c4, 2023-07-21)"
   xmlns:inkscape="http://www.inkscape.org/namespaces/inkscape"
   xmlns:sodipodi="http://sodipodi.sourceforge.net/DTD/sodipodi-0.dtd"
   xmlns="http://www.w3.org/2000/svg"
   xmlns:svg="http://www.w3.org/2000/svg"><defs
     id="defs1" /><sodipodi:namedview
     id="namedview1"
     pagecolor="#ffffff"
     bordercolor="#000000"
     borderopacity="0.25"
     inkscape:showpageshadow="2"
     inkscape:pageopacity="0.0"
     inkscape:pagecheckerboard="0"
     inkscape:deskcolor="#d1d1d1"
     showgrid="false"
     inkscape:zoom="3.2172886"
     inkscape:cx="93.40163"
     inkscape:cy="142.82213"
     inkscape:window-width="2560"
     inkscape:window-height="1377"
     inkscape:window-x="-8"
     inkscape:window-y="-8"
     inkscape:window-maximized="1"
     inkscape:current-layer="g1" /><g
     inkscape:groupmode="layer"
     inkscape:label="Image"
     id="g1"><path
       style="mix-blend-mode:normal;fill:#000000;stroke-width:0.19314;fill-rule:evenodd"
       d="m 169.68762,240.89104 c -0.5448,-0.49925 -1.09528,-0.90776 -1.22326,-0.90776 -0.12799,0 -0.88096,-0.6711 -1.67328,-1.49133 l -1.44057,-1.49134 -0.40519,-1.00427 c -0.22285,-0.55237 -0.40518,-1.35429 -0.40518,-1.7821 v -0.77779 l 3.00437,-3.1371 c 1.6524,-1.72539 6.01094,-6.23388 9.68564,-10.01886 3.67469,-3.78497 7.52923,-7.85325 8.56565,-9.0406 l 1.88439,-2.15884 1.5004,-1.01908 c 0.82522,-0.56045 3.15475,-1.86487 5.17672,-2.89871 l 3.67632,-1.87964 9.5e-4,-0.28864 c 4.9e-4,-0.15875 -1.24797,-1.40409 -2.77454,-2.76741 l -2.77559,-2.47881 -1.21757,-1.64171 c -1.34775,-1.81725 -1.63901,-2.43555 -1.88535,-4.00231 l -0.16727,-1.06372 -5.38758,-4.9016 c -2.9631,-2.69583 -8.64832,-7.81937 -12.63376,-11.38559 -3.98542,-3.56622 -8.24404,-7.37959 -9.46357,-8.47416 l -2.21734,-1.99012 -0.42076,2.40883 c -0.23144,1.32486 -0.83582,4.14617 -1.34309,6.26959 -0.50727,2.12341 -1.13419,4.95941 -1.39317,6.30221 l -0.47087,2.44147 -0.4867,0.67088 c -0.73393,1.01167 -3.3582,2.68619 -7.41263,4.72992 l -3.64295,1.83635 -4.53917,-0.16281 c -2.49655,-0.0895 -7.93348,-0.28025 -12.08207,-0.42386 -9.93307,-0.34377 -17.36585,-0.74093 -19.48822,-1.04128 l -1.71769,-0.2431 -1.35061,-0.86449 c -0.74284,-0.47545 -2.32862,-1.40387 -3.52398,-2.06311 -2.177881,-1.20108 -2.557608,-1.45636 -5.185818,-3.48627 l -1.414797,-1.09273 -0.408353,-1.2471 c -0.639291,-1.95232 -2.45161,-13.16804 -2.45161,-15.17197 0,-0.13267 -0.661602,0.29696 -1.47023,0.95473 -5.41211,4.40248 -24.524514,19.52495 -28.509569,22.55787 l -0.958843,0.72975 v 0.88986 c 0,1.55737 -1.450319,3.48985 -2.896232,3.85912 l -0.555596,0.14191 -0.863442,1.51205 -0.863451,1.51203 -2.524465,2.24586 -2.524464,2.24588 v 0.35425 0.35428 l 2.365151,1.56323 c 4.410228,2.91489 5.859761,4.03006 7.219303,5.55398 l 1.356562,1.52055 0.271694,1.0882 c 0.566121,2.26744 2.451895,4.70768 8.943127,11.57267 l 4.518369,4.77855 2.516861,3.26167 c 1.384272,1.79394 2.630824,3.50463 2.770119,3.80159 l 0.253259,0.53991 -0.295529,1.11329 -0.29553,1.11328 -1.590667,1.65366 -1.590668,1.65365 h -0.781989 -0.78198 l -0.996854,-0.77628 c -0.548277,-0.42696 -1.418604,-1.0641 -1.934064,-1.41588 -0.51547,-0.35177 -2.471511,-2.23626 -4.346759,-4.18775 -1.875248,-1.95146 -4.50262,-4.68252 -5.838602,-6.069 l -2.429063,-2.52087 -1.52284,-0.4484 -1.52283,-0.44839 -2.823919,-2.777 c -1.553158,-1.52736 -3.696421,-3.49281 -4.762824,-4.36765 -1.066393,-0.87484 -2.324091,-2.03565 -2.79487,-2.57954 l -0.855985,-0.98889 -1.070397,-2.33672 c -0.588728,-1.28517 -1.227615,-2.78482 -1.419765,-3.33254 l -0.349359,-0.9959 -0.515647,-0.26675 c -0.283607,-0.14672 -0.924216,-0.66246 -1.423582,-1.14608 l -0.907936,-0.87932 -1.877461,-0.52774 c -2.029378,-0.57045 -2.618322,-0.84209 -3.752385,-1.73071 -0.405018,-0.31736 -1.325948,-1.03789 -2.046494,-1.60117 l -1.310091,-1.0241 -0.603591,-1.25183 -0.603592,-1.25181 -0.09316,-1.96874 -0.09316,-1.96871 0.411324,-1.62858 0.411323,-1.62859 -0.542768,-1.50998 -0.542778,-1.50997 -1.057855,-0.69817 c -6.397385,-4.22223 -6.924521,-4.79018 -14.204816,-15.30435 -3.152541,-4.5529 -6.5468415,-9.36704 -7.5428887,-10.69807 -0.9960374,-1.33104 -2.3091675,-3.14009 -2.9180417,-4.02011 -0.6088939,-0.88002 -1.3108773,-1.83346 -1.5599752,-2.11876 -0.2490979,-0.2853 -0.5255727,-0.72722 -0.6143929,-0.98203 l -0.1614877,-0.46331 0.3426891,-1.00893 c 0.4345293,-1.27934 1.7514959,-2.97317 3.058163,-3.93331 l 1.013705,-0.74487 h 0.8015557 0.8015557 l 2.7632237,1.95266 c 3.012174,2.12858 5.531002,4.12288 11.793332,9.33742 3.905609,3.25214 7.077726,5.52837 10.994727,7.88955 0.98441,0.59341 2.450341,1.54188 3.257622,2.1077 l 1.467801,1.02876 0.542178,1.07802 0.542178,1.07802 0.108366,1.57494 c 0.05961,0.86622 0.233172,2.88796 0.385698,4.49276 l 0.27733,2.91782 h 0.212356 c 0.116807,0 0.86903,-0.40125 1.671628,-0.89167 0.802598,-0.49042 2.013805,-1.02661 2.691579,-1.19154 l 1.232327,-0.29988 0.558292,-0.9163 0.558291,-0.9163 1.124256,-0.50445 1.124265,-0.50446 1.096623,0.0684 1.096623,0.0684 3.938701,-3.08489 c 2.166282,-1.6967 9.979399,-7.79102 17.362483,-13.54294 l 13.42379,-10.45804 1.614513,-1.74429 1.614523,-1.74428 -0.205588,-1.81553 c -0.113069,-0.99854 -0.192544,-2.31039 -0.176598,-2.91522 l 0.02902,-1.09969 0.6375,-0.84552 c 0.350628,-0.46504 1.768584,-2.01265 3.151036,-3.43914 6.956613,-7.17825 10.58397,-11.03647 10.84982,-11.54036 l 0.29422,-0.55763 0.74201,-9.25334 c 0.40812,-5.08933 0.74478,-9.5631 0.74814,-9.94172 l 0.006,-0.68837 -3.80229,-2.620552 -3.802288,-2.620556 -1.198261,-1.299425 c -0.659141,-0.714755 -1.4194,-1.793421 -1.68956,-2.397091 L 94.23607,92.27676 94.23017,90.628009 94.22427,88.979248 92.513854,86.478227 C 83.672999,73.550819 75.165464,64.375936 69.226562,61.364231 l -1.857649,-0.942042 -1.722034,-0.376055 c -0.947107,-0.20683 -2.338256,-0.433155 -3.091432,-0.502925 l -1.369399,-0.12687 -1.315353,-1.298393 -1.315354,-1.298393 -0.95234,-0.348026 c -1.453881,-0.531321 -2.546097,-1.380288 -4.427119,-3.44112 -0.944835,-1.035168 -1.763567,-1.835796 -1.819383,-1.779172 -0.05578,0.05665 -0.501255,1.295377 -0.98985,2.752786 L 49.4783,56.653859 v 1.047749 1.04776 l -1.086687,1.016446 c -2.439511,2.281839 -7.750582,5.610297 -16.71668,10.476361 -3.075811,1.669299 -6.929656,3.779413 -8.564099,4.68915 l -2.971714,1.654059 h -0.742837 -0.742838 l -0.632198,-0.427757 c -1.273024,-0.861369 -2.609232,-2.325615 -3.2112,-3.518877 l -0.617138,-1.223345 -9.8e-5,-0.851556 -9.9e-5,-0.851546 1.981707,-1.878837 C 21.951194,62.356558 27.322046,57.021897 31.274756,52.834879 l 4.425132,-4.687433 1.342002,-0.825016 c 0.738096,-0.453762 2.695062,-1.456586 4.348805,-2.22851 l 3.006813,-1.403484 0.483597,-0.962164 c 0.265969,-0.529188 0.718786,-1.129257 1.006249,-1.333497 l 0.522651,-0.371332 V 40.17658 c 0,-1.245808 0.675255,-3.042334 1.546498,-4.114481 l 0.765158,-0.941596 1.399707,-0.694643 1.399717,-0.694643 1.649357,-0.134292 1.649356,-0.134291 1.139769,0.291115 1.139778,0.291115 1.079752,-0.386424 c 0.593873,-0.212544 1.40379,-0.386433 1.799817,-0.386433 h 0.720054 l 1.740793,-3.176942 1.740783,-3.176932 1.179885,-1.167377 1.179895,-1.167366 5.595928,-3.614165 c 7.141265,-4.612246 10.161859,-6.722349 14.289426,-9.982178 1.828196,-1.4438572 3.831043,-2.8753111 4.450768,-3.1810208 l 1.126773,-0.5558178 1.149725,0.6186723 1.149714,0.6186821 0.749084,1.04515 c 0.875423,1.2214402 1.473742,2.5731332 1.473742,3.3294302 v 0.535082 L 85.33899,24.62904 74.152497,35.860866 l -3.835362,2.012424 -3.835372,2.012433 -0.0846,0.464071 -0.0846,0.464061 0.874587,0.981968 c 0.48103,0.540072 1.132539,1.560894 1.447802,2.268485 l 0.573204,1.286527 0.930119,0.509463 0.930108,0.509463 0.583229,0.881282 0.583218,0.881282 -0.0049,1.063932 -0.0049,1.063931 4.295714,4.27947 c 2.362643,2.353703 7.859106,7.605467 12.214374,11.670586 4.355268,4.06511 9.090037,8.529373 10.521707,9.920574 1.431685,1.391201 2.697345,2.524695 2.812605,2.518871 0.11527,-0.006 1.29352,-0.279546 2.61835,-0.608265 l 2.40878,-0.597668 0.17506,-0.494024 c 0.0963,-0.271708 0.25423,-1.602794 0.351,-2.957959 0.24122,-3.377987 0.66312,-5.885587 1.21155,-7.200768 l 0.4611,-1.105771 0.65927,-0.254246 0.65927,-0.254255 4.78179,-0.08761 c 4.99602,-0.09148 14.61538,0.144967 23.62725,0.580752 l 5.29385,0.255991 0.7149,0.381522 c 0.39319,0.209836 1.29021,0.978654 1.99336,1.7085 l 1.27845,1.326988 0.12785,4.592114 0.12784,4.592105 2.49557,0.737446 2.49557,0.737446 4.40809,-3.744914 c 2.42445,-2.059711 5.7313,-4.882496 7.34855,-6.272864 5.71829,-4.9161 18.04731,-15.338944 19.59533,-16.565722 l 1.56911,-1.243486 0.15733,-0.797998 c 0.0866,-0.4389 0.40477,-1.204097 0.70718,-1.700433 l 0.54985,-0.902435 0.82641,-0.350259 0.82643,-0.350258 0.6727,-1.16434 c 0.36997,-0.640381 1.48242,-2.117932 2.47211,-3.283453 l 1.79941,-2.119102 -0.0774,-0.92976 -0.0774,-0.929769 -2.52279,-1.60202 -2.52278,-1.602019 -1.71865,-2.03948 c -0.94525,-1.121716 -3.99876,-4.490456 -6.78558,-7.486078 -7.9725,-8.569784 -11.2078,-12.522718 -12.69966,-15.516475 l -0.75294,-1.5109472 0.30001,-0.9220508 c 0.57828,-1.7773569 2.75561,-3.7072214 4.1826,-3.7072214 1.03829,0 1.8224,0.6297945 7.45904,5.9911454 6.39968,6.087108 10.41338,9.796919 15.71648,14.526499 l 3.95745,3.529453 0.61324,1.897411 0.61325,1.89741 0.6598,0.724686 c 0.36289,0.398568 1.3683,1.124465 2.23423,1.613092 l 1.57444,0.888426 1.36602,0.17499 c 0.75131,0.09624 1.9346,0.35891 2.62955,0.583708 l 1.26353,0.408728 1.19282,1.20994 1.19282,1.209951 0.57408,1.540831 0.57408,1.540842 -0.11368,2.500922 -0.11367,2.500912 0.27938,0.498808 c 0.15366,0.274337 1.31493,1.436831 2.58061,2.583312 1.26566,1.146481 3.12164,2.962682 4.12438,4.035989 l 1.82316,1.951475 2.17398,3.727799 c 2.52592,4.331261 5.14887,8.307233 10.40583,15.773557 4.33644,6.158912 4.357,6.193251 4.357,7.275151 v 0.810659 l -1.34063,1.437863 c -0.73735,0.790825 -1.76832,1.659189 -2.29104,1.929686 l -0.9504,0.491823 h -0.86571 -0.86567 l -1.89318,-1.605602 c -1.04124,-0.883077 -3.50403,-3.076166 -5.47284,-4.873526 -6.68761,-6.105195 -10.08077,-8.86952 -14.80982,-12.065224 l -3.07046,-2.074891 -0.50422,-0.884894 -0.50421,-0.884903 -0.19197,-3.005524 c -0.10558,-1.653037 -0.26624,-3.738574 -0.35703,-4.63453 l -0.16506,-1.628997 -0.82356,0.733468 c -1.17282,1.044534 -2.41977,1.776345 -3.65905,2.147409 l -1.07316,0.321327 -0.81452,1.028114 -0.81452,1.028114 -0.85279,0.36143 c -0.46903,0.198793 -1.2361,0.361431 -1.7046,0.361431 h -0.85182 l -2.92784,2.243065 c -7.87151,6.030494 -27.38179,22.203046 -29.61547,24.548999 l -1.11852,1.174739 -0.18743,1.94177 -0.18744,1.941771 -0.53094,0.868492 c -0.84925,1.389138 -2.00193,2.354983 -5.6785,4.758011 -1.89852,1.24087 -3.94759,2.74077 -4.55352,3.33309 l -1.10168,1.07696 0.15072,8.55894 c 0.24288,13.79407 -0.30636,11.86764 4.95297,17.37202 4.5904,4.80426 7.21528,7.92812 8.5885,10.22114 l 0.97106,1.62147 -0.14312,1.4731 c -0.0787,0.8102 -0.22066,2.01553 -0.31542,2.6785 l -0.17231,1.20541 0.76579,1.129 c 0.82773,1.22034 1.50332,1.8994 5.07989,5.10591 1.28329,1.15052 4.7483,4.69454 7.70002,7.8756 10.8128,11.65297 16.54673,16.54728 19.38599,16.54728 h 0.58529 l 1.17241,0.90777 1.17241,0.90776 h 0.73271 c 1.76894,0 4.97432,1.74213 9.20298,5.00187 l 2.68226,2.06767 0.6564,-0.2279 0.65639,-0.22792 0.70059,-1.4265 0.70058,-1.42647 0.48996,-3.11234 c 0.26948,-1.7118 0.68175,-4.38538 0.91614,-5.9413 0.23439,-1.55593 0.66693,-3.48169 0.96118,-4.27947 l 0.53503,-1.45051 4.78283,-4.92787 c 2.63056,-2.71032 5.96919,-6.27006 7.41919,-7.91052 5.70605,-6.45559 6.61963,-7.26213 8.22583,-7.26213 h 0.84961 l 2.6897,1.78933 2.6897,1.78935 0.94799,1.06439 0.94801,1.06438 v 1.17194 1.17194 l -0.63276,0.96987 c -0.34801,0.53342 -2.7052,5.33143 -5.23824,10.66223 -4.99851,10.51947 -7.01997,14.49766 -9.12605,17.9599 l -1.3629,2.2405 -3.158,3.07797 -3.15801,3.07795 -0.13725,1.23519 -0.13725,1.23517 -0.72421,1.09754 -0.72421,1.09755 -0.0288,2.33425 -0.0288,2.33426 -0.58522,1.35569 -0.58523,1.35571 -1.13692,1.06298 c -0.6253,0.58465 -1.61904,1.28506 -2.20833,1.55642 l -1.07142,0.49344 -2.28474,0.006 -2.28474,0.006 -0.52787,0.48278 c -0.7049,0.64475 -2.0311,1.07338 -3.32091,1.07338 h -1.05475 l -1.17685,2.39909 c -3.05943,6.23689 -11.49734,13.67772 -26.14614,23.05656 -2.40366,1.53891 -4.8961,3.15195 -5.53876,3.58449 l -1.16847,0.78644 h -0.8124 -0.8124 z m 5.80192,-1.72684 c 17.1901,-10.87986 25.78374,-18.23635 29.32196,-25.10073 l 1.27845,-2.48027 1.53415,-0.12971 1.53415,-0.12968 0.97346,-0.58357 0.97346,-0.58354 h 1.72881 1.72881 l 1.28593,-0.38736 1.28592,-0.38736 1.16868,-0.90518 1.16868,-0.90514 0.72402,-1.49563 0.72403,-1.4956 0.0108,-2.37235 0.0108,-2.37234 0.71124,-1.04105 0.71124,-1.04105 0.18701,-1.39781 0.18699,-1.39778 1.26229,-1.15413 c 0.69426,-0.63478 1.99554,-1.85442 2.89173,-2.71032 l 1.62948,-1.55616 1.78153,-2.72329 1.78151,-2.72329 4.04519,-8.29958 c 2.22483,-4.56477 5.03237,-10.34204 6.23893,-12.8384 1.20658,-2.49636 2.44156,-4.98509 2.74437,-5.53052 l 0.55064,-0.99169 -0.30167,-1.02124 -0.30162,-1.02124 -1.33128,-1.07299 c -1.62333,-1.3084 -4.61182,-3.27719 -5.48673,-3.61459 l -0.64223,-0.24769 -1.12903,0.55439 -1.12904,0.5544 -4.5238,5.0933 c -2.4881,2.80132 -6.437,7.07741 -8.77533,9.50244 -5.46941,5.67216 -5.17731,5.06065 -6.3592,13.31331 l -0.73059,5.10137 -0.53505,1.44861 -0.53505,1.4486 -0.5727,0.54222 c -0.31497,0.29822 -0.86159,0.61488 -1.21468,0.70367 l -0.64201,0.16146 -1.78706,-1.45635 c -2.38065,-1.94008 -5.26713,-3.86864 -7.19649,-4.80821 l -1.57405,-0.76655 -1.23856,-0.16705 -1.23854,-0.16706 -0.80109,-0.70453 -0.8011,-0.70453 -0.97295,-0.18514 c -3.63827,-0.69235 -8.53988,-4.84536 -18.7276,-15.86747 l -6.44237,-6.97 -2.82279,-2.46393 -2.82278,-2.46394 -1.13912,-1.51702 c -1.28707,-1.71406 -1.28779,-1.71842 -0.73347,-4.43732 l 0.40566,-1.98972 -0.70048,-1.40435 c -0.99292,-1.99063 -3.3935,-4.94415 -8.13968,-10.01448 -2.26407,-2.4187 -4.4187,-4.7971 -4.78807,-5.28533 l -0.67158,-0.88769 -0.16662,-7.72161 c -0.0917,-4.24688 -0.19011,-9.04875 -0.21883,-10.67081 l -0.0522,-2.94922 1.27396,-1.14191 c 0.70066,-0.62805 2.53962,-1.94626 4.08655,-2.92936 1.54693,-0.983102 3.35596,-2.20869 4.02005,-2.723521 l 1.20745,-0.93606 0.67657,-1.171057 0.67657,-1.171057 0.12929,-1.740368 0.12927,-1.740359 0.62134,-0.843986 c 1.13128,-1.536635 23.04363,-19.731413 30.61951,-25.424715 l 2.79466,-2.100192 0.94778,0.0383 0.94776,0.0383 1.062,-0.712879 1.06198,-0.71288 0.28772,-0.640549 0.28773,-0.64054 1.2973,-0.390789 1.2973,-0.390789 1.38353,-0.968177 c 0.76095,-0.532511 1.53337,-1.080779 1.71649,-1.218374 l 0.33296,-0.250187 0.17313,0.175615 c 0.23161,0.234938 0.58718,3.772854 0.6061,6.030712 0.009,0.998538 0.14036,2.282386 0.2933,2.852977 l 0.27809,1.03745 0.67933,0.748529 c 0.37363,0.411684 1.65735,1.390894 2.85271,2.176004 4.24923,2.790915 7.93881,5.814318 16.17847,13.257316 2.78074,2.511886 5.43005,4.769159 5.88737,5.016141 l 0.83147,0.44907 0.91982,-0.257619 0.91981,-0.257619 1.16688,-1.041876 c 0.64178,-0.573042 1.42046,-1.458044 1.73036,-1.966694 l 0.56349,-0.924818 -0.38674,-0.822624 c -0.2127,-0.452453 -2.31379,-3.563465 -4.66904,-6.913374 -4.86116,-6.914038 -7.72944,-11.297944 -10.09398,-15.427754 l -1.6335,-2.852976 -1.93576,-2.058848 c -1.06467,-1.132362 -3.02885,-3.096437 -4.36483,-4.364598 -1.33599,-1.268181 -2.55952,-2.551553 -2.71895,-2.851955 l -0.2899,-0.546183 0.16205,-0.795161 c 0.0891,-0.437342 0.15223,-1.612159 0.14024,-2.610697 l -0.0218,-1.815536 -0.53724,-1.227641 c -0.29548,-0.675206 -0.8437,-1.635197 -1.21826,-2.13333 l -0.68102,-0.905679 -1.31754,-0.653865 -1.31755,-0.653875 -1.78914,-0.228984 -1.78914,-0.228975 -1.53415,-0.916861 c -0.84379,-0.504265 -1.84153,-1.247812 -2.2172,-1.652323 l -0.68306,-0.735481 -0.6659,-1.944678 c -0.36625,-1.069567 -0.86429,-2.134352 -1.10678,-2.366175 -0.24249,-0.231822 -1.87915,-1.689251 -3.63703,-3.238715 -4.44072,-3.914213 -13.53336,-12.332392 -17.53428,-16.2336152 -1.83887,-1.7930429 -3.71436,-3.4546722 -4.16777,-3.6924971 l -0.82436,-0.4324207 -0.56253,0.1746827 c -0.30939,0.096043 -1.02932,0.5582983 -1.59986,1.0271616 l -1.03734,0.852469 -0.46458,1.0450406 -0.46458,1.0450409 0.15124,0.6112212 c 0.2369,0.957432 2.08582,3.718671 4.3881,6.553342 2.12186,2.612513 3.78302,4.463281 10.64738,11.862702 2.05978,2.220344 4.37478,4.811386 5.14445,5.757883 l 1.39938,1.720892 1.37567,0.852866 c 0.75662,0.469072 1.92222,1.193391 2.59021,1.6096 l 1.21453,0.756733 -0.006,1.298701 -0.006,1.298691 -1.68307,1.945213 c -0.92569,1.069875 -2.02709,2.557953 -2.44757,3.306868 l -0.76449,1.361645 h -0.46048 -0.46049 l -0.79154,0.91446 -0.79154,0.91445 -0.27389,1.095602 -0.27389,1.095592 -1.02684,0.744838 c -1.3067,0.947827 -7.07475,5.786944 -15.20195,12.753697 -3.50214,3.00209 -8.64412,7.407993 -11.42664,9.790906 l -5.05912,4.332561 h -0.65208 c -0.78597,0 -4.44144,-1.026209 -4.89077,-1.373005 l -0.31961,-0.246675 -0.0204,-2.497013 c -0.0112,-1.373362 -0.099,-3.455843 -0.19512,-4.627744 l -0.17479,-2.130721 -0.99116,-1.029612 c -0.54514,-0.566295 -1.46412,-1.272279 -2.04218,-1.568871 l -1.05101,-0.539248 -8.18212,-0.350437 -8.18212,-0.350427 -8.47515,0.02986 -8.47514,0.02987 -0.52741,0.484381 c -0.95907,0.880855 -1.38269,2.916237 -2.02814,9.74474 l -0.18238,1.929547 -2.89713,0.736295 -2.89713,0.736305 -2.005285,-1.887767 C 98.746016,76.26767 94.296663,72.092974 89.961493,68.028837 85.626312,63.96471 79.822603,58.38893 77.064347,55.638237 L 72.049586,50.636968 71.893833,49.303005 71.738081,47.969052 71.027932,47.211048 C 70.637346,46.794145 69.9923,46.280644 69.594483,46.069935 l -0.72329,-0.383119 -0.388482,-0.955378 C 68.269047,44.205981 67.645279,43.181717 67.09655,42.455294 L 66.098879,41.134527 V 40.31729 39.500054 l 3.643595,-1.85059 C 74.353412,35.307568 72.926731,36.556491 85.33964,23.995595 L 96.014746,13.193213 v -0.512588 c 0,-1.291438 -1.714193,-3.7622885 -3.151469,-4.5425368 L 92.218782,7.7882166 91.549006,7.9587323 90.879239,8.1292479 86.735097,11.312084 C 81.571456,15.277937 79.20179,16.934268 72.079688,21.55583 l -5.653141,3.668338 -1.004606,1.10606 -1.004605,1.106049 -1.728408,3.146096 -1.728408,3.146095 -1.457963,0.186817 c -1.481121,0.189774 -2.695141,0.214638 -5.676859,0.116234 l -1.661997,-0.05487 -1.305909,0.571414 -1.30592,0.571415 -0.918894,0.956578 c -1.067888,1.111686 -1.631895,2.348494 -1.737212,3.809555 l -0.07476,1.03745 -0.81819,0.943928 c -0.450003,0.519167 -0.895009,1.189423 -0.988886,1.489457 l -0.170685,0.545519 -4.165302,2.053212 -4.165302,2.053212 -2.146411,2.281423 c -1.180534,1.254787 -3.181964,3.379574 -4.447639,4.721742 -1.265676,1.342168 -5.206512,5.237209 -8.757421,8.655647 l -6.456201,6.215347 v 0.770624 c 0,1.517307 1.694174,3.993217 3.444293,5.033574 l 1.094754,0.650779 0.697025,-0.26882 c 0.383366,-0.147845 1.922191,-0.953503 3.419612,-1.790345 1.49741,-0.836852 5.138851,-2.833837 8.09209,-4.437761 9.063358,-4.922381 15.49111,-8.996649 17.089805,-10.832494 l 0.469894,-0.539586 0.210152,-1.640288 c 0.115578,-0.902157 0.536965,-2.572805 0.936405,-3.712559 l 0.726261,-2.072282 0.398998,-0.07699 0.399007,-0.07699 2.285755,2.304412 2.285755,2.304411 1.352055,0.452542 1.352056,0.452542 0.42784,0.662338 c 0.235307,0.364278 0.881051,0.995353 1.434984,1.402384 l 1.007153,0.740045 0.920478,1.98e-4 c 7.978697,0.002 20.402437,11.373787 31.026577,28.399879 l 0.647357,1.03745 0.1517,1.802926 0.151709,1.802915 0.658395,1.365038 0.658395,1.365028 1.127108,1.006365 c 0.619902,0.553496 2.626498,2.035958 4.459078,3.294355 1.83257,1.258402 3.49365,2.472842 3.69125,2.698762 l 0.35928,0.41077 -0.74497,9.85574 -0.74497,9.85574 -0.44414,0.89314 -0.44415,0.89315 -6.680944,6.90471 -6.680942,6.90472 -0.445685,0.87422 -0.445675,0.87423 0.151779,1.44301 c 0.08352,0.79366 0.222163,1.90987 0.30818,2.48047 l 0.156392,1.03744 -1.491518,1.74042 -1.491518,1.74041 -12.273182,9.56029 c -6.750245,5.25817 -14.671867,11.44622 -17.603612,13.75122 l -5.33045,4.1909 -1.228924,-0.0281 -1.228923,-0.0281 -0.983525,0.4872 -0.983514,0.4872 -0.511388,0.83264 -0.511387,0.83263 -1.406299,0.42301 c -0.77346,0.23265 -2.054187,0.82085 -2.846053,1.3071 -0.791856,0.48625 -1.607626,0.88409 -1.812811,0.88409 h -0.373056 l -0.283479,-1.75068 c -0.15591,-0.96288 -0.356403,-2.97618 -0.445538,-4.474 l -0.162048,-2.72329 -0.45322,-1.03745 c -0.640334,-1.46578 -1.645648,-2.23299 -8.326364,-6.35436 -1.503008,-0.92721 -3.797705,-2.56119 -5.099305,-3.63105 -7.557704,-6.21214 -12.687899,-10.33909 -13.696046,-11.01767 -0.631529,-0.42507 -1.6537926,-1.15453 -2.2716974,-1.62101 l -1.123449,-0.84813 H 6.8542997 5.9808438 l -1.3402119,1.2857 -1.3402119,1.28572 -0.587252,1.19274 -0.5872619,1.19276 0.3143087,0.76971 c 0.1728694,0.42333 0.4490786,0.85447 0.6138027,0.95808 0.1647143,0.1036 0.5235758,0.56257 0.7974634,1.01994 0.2738877,0.45735 1.6577572,2.38311 3.0752699,4.27946 1.4175127,1.89634 5.1570012,7.18167 8.3099652,11.74517 l 5.732675,8.29728 1.243423,1.22355 c 0.683883,0.67294 2.282548,1.95782 3.552582,2.85528 1.270033,0.89744 2.774998,1.9827 3.344386,2.41168 l 1.035229,0.77996 0.599804,1.5543 0.599804,1.55428 -0.435709,1.55616 -0.43572,1.55619 -0.0049,1.68584 -0.0049,1.68586 0.568148,1.28733 c 0.712598,1.61463 1.005127,1.94138 3.331254,3.72077 l 1.887721,1.44405 2.069051,0.60787 c 2.063119,0.60615 3.232538,1.18501 3.232538,1.60012 0,0.1204 0.464877,0.53095 1.033064,0.91237 l 1.033065,0.69347 0.261089,0.70264 c 1.952795,5.25533 2.895741,6.65112 6.585119,9.74747 1.45635,1.2223 3.326748,2.9738 4.156448,3.89225 0.82969,0.91846 2.045373,2.03062 2.701525,2.47147 l 1.192988,0.80156 h 0.567263 0.567262 l 1.505163,1.12395 1.505162,1.12394 3.088432,3.47973 c 3.257858,3.67059 6.258867,6.66093 7.440444,7.41397 0.389347,0.24813 1.13973,0.83581 1.667496,1.30593 l 0.959581,0.85481 h 0.757809 0.75781 l 0.920025,-0.93324 c 0.506017,-0.51327 1.257757,-1.40612 1.670516,-1.98413 l 0.750491,-1.05089 v -0.73139 -0.73141 l -1.600573,-2.0178 c -0.880323,-1.10982 -2.078229,-2.65975 -2.662019,-3.44433 -0.583789,-0.78459 -3.32604,-3.81909 -6.093887,-6.7434 -6.255847,-6.60947 -8.551085,-9.6699 -8.562171,-11.41666 -0.0079,-1.20596 -2.915534,-3.86688 -7.647547,-6.99801 l -3.331717,-2.20459 -0.152417,-0.44864 -0.152408,-0.44864 0.237618,-0.43071 c 0.130687,-0.23687 1.259556,-1.3241 2.508577,-2.41604 l 2.27097,-1.98535 0.912263,-1.52857 0.912264,-1.52857 1.227674,-0.67137 1.227675,-0.67135 0.462103,-0.90069 c 0.254154,-0.49537 0.556855,-1.36389 0.672658,-1.93002 l 0.210566,-1.02931 5.880902,-4.6196 c 9.508363,-7.46906 17.917537,-14.13495 21.445692,-16.99984 l 3.29162,-2.67282 0.411904,0.0805 0.411913,0.0805 0.442084,3.59822 c 0.877352,7.14082 2.117864,13.12507 2.720777,13.12507 0.09503,0 0.804762,0.53211 1.577229,1.18246 1.392459,1.17235 2.324358,1.76035 7.308846,4.61162 l 2.58038,1.47605 2.78913,0.2514 c 4.46567,0.40252 11.7233,0.73489 23.37415,1.07051 l 10.86502,0.31296 2.94045,-1.4243 c 1.61725,-0.78336 4.00571,-2.09436 5.30772,-2.91337 l 2.36725,-1.48908 0.36055,-0.7072 c 0.19829,-0.38898 0.49424,-1.46091 0.65763,-2.38207 0.1634,-0.92116 0.70072,-3.36716 1.19403,-5.43558 0.49332,-2.06841 1.1589,-5.13579 1.47907,-6.81642 0.79736,-4.18541 0.6072,-4.17314 4.7423,-0.30587 1.47662,1.38099 6.42424,5.84756 10.99472,9.9257 4.57048,4.07816 9.94958,8.92472 11.95356,10.77016 l 3.6436,3.35533 v 0.92038 0.92035 l 0.54484,1.14163 0.54484,1.14166 2.11357,2.2471 c 1.16246,1.23589 2.81496,2.83064 3.67223,3.54389 l 1.55866,1.29682 0.002,0.69694 0.002,0.69694 -4.41067,2.2658 -4.41067,2.26581 -3.19614,3.38657 c -1.75788,1.86265 -7.25205,7.5406 -12.20926,12.61766 l -9.01311,9.23103 v 0.79446 c 0,1.50438 2.46461,5.26319 3.45101,5.26319 0.19429,0 0.88502,0.46684 1.53496,1.03743 1.50535,1.32158 1.08881,1.42378 5.45205,-1.33778 z"
       id="path281"
       inkscape:label="path281" /></g></svg>
