<?xml version="1.0" encoding="UTF-8" standalone="no"?>
<!-- Created with Inkscape (http://www.inkscape.org/) -->

<svg
   version="1.1"
   id="svg1"
   width="1080"
   height="1080"
   viewBox="0 0 1080.0001 1080"
   sodipodi:docname="air3_2.jpg"
   xml:space="preserve"
   inkscape:version="1.3 (0e150ed6c4, 2023-07-21)"
   xmlns:inkscape="http://www.inkscape.org/namespaces/inkscape"
   xmlns:sodipodi="http://sodipodi.sourceforge.net/DTD/sodipodi-0.dtd"
   xmlns="http://www.w3.org/2000/svg"
   xmlns:svg="http://www.w3.org/2000/svg"><defs
     id="defs1" /><sodipodi:namedview
     id="namedview1"
     pagecolor="#ffffff"
     bordercolor="#000000"
     borderopacity="0.25"
     inkscape:showpageshadow="2"
     inkscape:pageopacity="0.0"
     inkscape:pagecheckerboard="0"
     inkscape:deskcolor="#d1d1d1"
     showgrid="false"
     inkscape:zoom="0.67774214"
     inkscape:cx="818.15777"
     inkscape:cy="670.60903"
     inkscape:window-width="2560"
     inkscape:window-height="1377"
     inkscape:window-x="-8"
     inkscape:window-y="-8"
     inkscape:window-maximized="1"
     inkscape:current-layer="g1" /><g
     inkscape:groupmode="layer"
     inkscape:label="Image"
     id="g1"><path
       style="fill:#000000;stroke-width:1.1452"
       d="m 739.12499,1074.2164 c -2.63231,-2.4535 -7.94665,-7.4857 -11.80963,-11.1826 l -7.02362,-6.7214 -1.96644,-5.7502 -1.96643,-5.7503 1.15599,-3.1973 1.1561,-3.1972 40.19294,-42.67751 c 22.10614,-23.47271 44.87549,-48.11391 50.59856,-54.7583 11.78222,-13.67893 12.07136,-13.89623 35.85046,-26.94989 l 17.41979,-9.56266 0.31911,-2.2245 0.31924,-2.22453 -10.59635,-9.66024 c -17.03157,-15.52688 -26.26584,-28.514 -26.79005,-37.6777 l -0.24355,-4.25751 -6.16525,-6.02764 c -3.39093,-3.3152 -6.4175,-6.29285 -6.7258,-6.61699 -2.52475,-2.65487 -26.74202,-25.26419 -49.88266,-46.57059 -26.64527,-24.53326 -56.21955,-52.16145 -64.22373,-59.99771 l -3.6921,-3.61453 -0.94665,1.61071 c -0.52064,0.88588 -1.28529,4.32751 -1.69904,7.64803 -0.41386,3.32054 -3.49682,18.32798 -6.85119,33.34988 -3.35425,15.02189 -6.09867,28.35029 -6.09867,29.61866 0,10.11773 -12.63881,20.74893 -41.11173,34.58123 l -9.37205,4.55303 -15.39283,-9.9e-4 c -29.02136,-0.002 -120.24699,-3.86444 -139.71671,-5.91489 l -9.98604,-1.05167 -6.26787,-3.99259 c -3.44732,-2.1959 -10.5555,-6.43434 -15.79599,-9.41874 -9.5654,-5.44739 -11.15382,-6.55379 -22.89587,-15.94806 l -6.36361,-5.09123 -1.15087,-3.15979 c -3.16752,-8.69671 -6.408,-26.55126 -9.3446,-51.48721 -0.9925,-8.42783 -2.06415,-16.71596 -2.38142,-18.41803 l -0.57688,-3.0947 -20.60932,17.2393 c -11.33512,9.48163 -41.7996,34.47806 -67.69884,55.54764 l -47.08951,38.30831 -0.0607,3.16473 c -0.14307,7.45433 -6.27189,16.31955 -12.87096,18.61766 l -3.44369,1.19925 -3.26766,6.58022 -3.26764,6.58021 -10.94869,10.04418 c -10.75788,9.86913 -13.16178,12.93147 -11.41744,14.54468 0.48261,0.44632 8.58579,6.26164 18.00708,12.9229 l 17.12961,12.1114 6.69077,7.67801 6.69075,7.67801 v 1.99871 c 0,7.93714 11.65897,24.00369 39.70128,54.71005 19.80737,21.6892 21.2204,23.3887 35.37751,42.552 l 7.83715,10.6084 0.0175,4.2434 0.0175,4.2432 -3.18619,4.597 c -1.7524,2.5284 -5.57341,6.899 -8.49112,9.7124 l -5.30493,5.1152 -2.9987,-0.7869 c -1.64929,-0.4326 -4.69494,-2.2041 -6.76811,-3.9363 -2.07319,-1.7324 -5.352,-4.294 -7.28624,-5.6925 -4.83633,-3.4968 -25.91474,-25.4207 -39.38727,-40.9673 l -11.14721,-12.8631 -5.01484,-3.3441 c -2.75816,-1.83937 -6.05104,-3.34619 -7.31754,-3.34862 -3.72834,-0.0116 -8.73431,-3.87816 -18.70698,-14.46575 -5.15776,-5.4758 -13.96818,-13.97982 -19.57871,-18.89782 -5.61053,-4.91799 -11.87571,-10.94752 -13.92263,-13.39895 l -3.72166,-4.45717 -4.12278,-9.45478 c -2.26753,-5.20013 -5.02453,-11.97431 -6.12668,-15.05371 -1.10214,-3.07939 -2.42296,-5.5989 -2.93515,-5.5989 -0.51219,0 -3.45594,-2.35781 -6.54167,-5.23959 l -5.61042,-5.23958 -4.23538,-1.2368 c -2.32947,-0.68022 -4.99204,-1.24605 -5.91681,-1.2574 -2.5427,-0.0312 -13.61943,-6.94882 -21.34404,-13.32975 l -6.87075,-5.67558 -2.98722,-6.70096 -2.98725,-6.70095 0.14288,-10.01911 0.14287,-10.01909 1.81442,-5.14466 1.81441,-5.14468 -2.23752,-5.31893 c -1.23065,-2.92544 -2.23753,-5.9253 -2.23753,-6.66641 0,-0.7411 -6.17929,-5.82875 -13.73175,-11.3059 l -13.731699,-9.95863 -7.846748,-8.28777 -7.84675,-8.28779 -24.661054,-37.11584 C 45.441839,734.04858 31.095987,712.83165 27.125737,707.31359 23.155498,701.79553 17.477799,693.833 14.508638,689.61909 11.539483,685.40516 8.1025505,680.71704 6.8710278,679.201 5.6394938,677.68496 4.3109646,675.10004 3.918737,673.45675 l -0.7131524,-2.98783 2.3930579,-5.17943 c 3.0885323,-6.6847 10.3939665,-14.99073 15.3676965,-17.47253 l 3.907831,-1.94994 2.415361,0.8061 c 5.901639,1.96963 31.336001,22.07059 67.026121,52.97125 15.584238,13.49291 28.648468,23.1943 44.277868,32.88042 4.9322,3.05668 11.99035,7.79261 15.68471,10.52431 l 6.71706,4.96671 2.47087,4.71 2.47087,4.71002 0.67438,11.17756 c 0.88224,14.62284 2.84989,30.62719 3.76496,30.62338 0.39872,-9.9e-4 3.62904,-1.84444 7.17849,-4.09505 3.54944,-2.25061 9.18964,-4.92841 12.53378,-5.95065 l 6.08024,-1.85865 2.24007,-3.99227 2.24007,-3.99227 3.72196,-2.06122 3.72197,-2.06122 6.25603,-0.1153 6.25605,-0.11532 35.77991,-29.10294 c 19.67895,-16.00661 54.68664,-44.38238 77.79484,-63.05728 l 42.01496,-33.95435 5.39802,-7.03572 5.39803,-7.0357 -0.6268,-2.35744 c -0.34475,-1.29659 -0.93953,-6.35883 -1.32176,-11.24942 l -0.69494,-8.89201 1.87534,-3.81337 1.87535,-3.81338 30.0096,-32.19094 30.00961,-32.19095 1.24382,-3.43108 1.24382,-3.4311 2.91291,-40.66574 c 1.60212,-22.36616 3.16858,-42.33803 3.48106,-44.38195 l 0.56812,-3.7162 -15.44354,-10.94999 c -8.49393,-6.0225 -18.39718,-13.89781 -22.00723,-17.5007 l -6.56371,-6.55073 -2.22124,-4.57423 -2.22123,-4.57425 -0.61721,-8.981 -0.61721,-8.98102 -7.34869,-11.1978 C 362.01218,312.6775 325.82377,272.39564 298.89059,258.23269 l -8.96767,-4.71569 -8.40719,-1.77872 c -4.62396,-0.97829 -10.09023,-1.77913 -12.14729,-1.77967 l -3.7401,-9.8e-4 -4.80484,-3.62836 c -2.64267,-1.99561 -5.42403,-4.84492 -6.18079,-6.33182 l -1.37594,-2.70343 -4.62583,-1.45735 c -6.5745,-2.07126 -12.65657,-6.84018 -20.1629,-15.80962 -3.58483,-4.2836 -7.13468,-7.78837 -7.88856,-7.78837 h -1.37068 l -3.60125,11.55301 c -1.98068,6.35414 -3.60813,13.11702 -3.61657,15.02864 -0.008,1.91161 -0.33438,4.7291 -0.72436,6.2611 l -0.70908,2.78547 -8.72021,7.23364 c -14.3196,11.87847 -34.52133,24.49025 -79.50772,49.63609 -10.1727,5.68619 -23.320035,13.19104 -29.216302,16.67744 -5.896266,3.48639 -11.784697,6.33891 -13.085404,6.33891 H 77.67299 l -5.377785,-4.31647 c -6.489194,-5.20853 -8.69194,-7.80458 -11.745841,-13.84306 l -2.328576,-4.60427 -0.0022,-4.23611 -0.0022,-4.23609 15.527205,-15.19518 c 8.539972,-8.35733 30.452717,-30.99483 48.695007,-50.30556 l 33.16781,-35.11038 15.03341,-7.59466 c 8.26838,-4.17707 16.12623,-7.94977 17.46189,-8.3838 l 2.42846,-0.78912 1.1524,-3.4761 c 0.63383,-1.91187 2.45633,-4.84721 4.04999,-6.52302 l 2.89759,-3.04689 0.68884,-5.51068 c 0.37888,-3.03088 1.67789,-7.75875 2.88672,-10.50639 l 2.19788,-4.9957 4.02937,-3.72015 c 2.21616,-2.04606 6.32495,-4.79565 9.13065,-6.11015 l 5.10127,-2.39002 8.68743,0.2906 c 13.71548,0.45883 17.80032,0.34282 24.24266,-0.68843 l 6.02708,-0.9648 7.4244,-13.93623 c 4.08346,-7.66492 9.04652,-15.96172 11.02906,-18.437312 l 3.60462,-4.501057 20.49599,-13.886287 c 37.35059,-25.30549 53.10136,-36.655256 70.87325,-51.070166 21.89202,-17.756792 23.55303,-18.30428 32.332,-10.65706 l 4.24219,3.695308 2.76381,5.735136 c 1.52009,3.154326 2.7638,7.193804 2.7638,8.976615 v 3.241488 l -48.84497,50.92378 -48.84498,50.923785 -16.73109,8.99752 -16.73112,8.99753 v 3.03638 3.03637 l 3.72103,4.33096 c 2.04658,2.38202 4.69483,6.81197 5.88504,9.84432 l 2.16401,5.51339 2.95094,1.2873 c 6.21202,2.7099 11.06103,10.48372 11.06103,17.73277 v 3.49737 l 15.97366,16.77697 c 8.78552,9.22733 32.36059,32.68146 52.38906,52.12027 20.02847,19.43883 42.07502,40.98978 48.99233,47.89101 l 12.57692,12.5477 12.09993,-3.18973 12.0999,-3.18971 0.8042,-9.35797 c 1.62341,-18.89097 3.29703,-30.71255 5.14448,-36.33786 l 1.89264,-5.76294 2.75388,-1.8987 2.75385,-1.89872 37.60335,-0.14537 37.60333,-0.14539 36.43121,1.66089 36.43105,1.66087 3.92339,2.7539 c 2.15782,1.51466 5.99205,4.96826 8.52037,7.67468 l 4.59685,4.92075 0.72762,12.50479 c 0.40027,6.87763 0.72763,16.38563 0.72763,21.12888 v 8.62409 l 6.44548,1.88089 c 3.54508,1.03449 7.90797,2.37537 9.6955,2.97971 1.78743,0.60435 4.22836,1.09883 5.42413,1.09883 h 2.17432 l 13.63215,-12.03221 c 7.49757,-6.61772 29.52157,-26.14723 48.94224,-43.39893 40.59042,-36.05727 73.9996,-65.16131 77.82779,-67.79887 l 2.64024,-1.81911 1.23602,-5.16173 1.23612,-5.16174 3.78083,-4.21545 c 2.07946,-2.31851 4.55616,-4.21545 5.50372,-4.21545 h 1.72277 l 3.01095,-5.40258 c 1.65601,-2.9714 6.49607,-9.65037 10.75563,-14.84211 l 7.7447,-9.43956 v -5.0141 -5.01411 l -11.21264,-7.38014 -11.21252,-7.38012 -5.70782,-7.24113 c -3.13923,-3.98262 -12.13609,-14.40182 -19.99291,-23.1538 -53.2231,-59.286569 -69.57484,-80.703385 -69.57484,-91.126252 v -2.816379 l 3.22039,-5.042091 3.22039,-5.04209 4.79503,-3.3863058 c 5.74125,-4.0545144 6.55471,-4.1102383 12.62923,-0.8650429 l 4.71945,2.5212505 13.45148,13.7434832 c 25.5915,26.146974 63.67076,62.741687 85.19284,81.871517 4.93225,4.38398 9.39757,9.12239 9.92301,10.5298 0.52533,1.40739 2.15804,5.98483 3.62813,10.17209 3.15161,8.9768 4.31005,10.3102 13.91238,16.01423 l 7.28623,4.32819 7.69465,1.03543 7.6945,1.03545 5.00561,2.62873 5.00569,2.62871 3.96017,4.60939 c 2.1781,2.53516 4.94295,6.94545 6.14408,9.80064 l 2.18378,5.19127 0.64459,8.0849 0.64458,8.0849 -1.21684,3.67057 -1.21684,3.67057 1.34481,3.29542 1.3448,3.2954 8.96766,8.32052 c 4.93224,4.57629 13.27023,13.0362 18.52897,18.7998 l 9.5613,10.47929 9.96725,17.68076 c 11.18812,19.84626 21.42345,35.89505 45.73341,71.70903 9.1692,13.50818 17.209,25.80139 17.8662,27.31825 l 1.195,2.75791 -0.6898,2.89025 -0.6899,2.89026 -6.0698,6.48543 -6.0699,6.48545 -5.2171,2.09505 -5.2169,2.09505 -3.5787,-1.80524 c -1.9683,-0.99287 -7.8663,-5.79322 -13.1069,-10.66743 -5.24042,-4.87421 -17.34677,-16.14379 -26.90295,-25.04354 -23.4728,-21.86043 -38.42458,-34.37616 -53.80605,-45.03962 -14.91487,-10.34004 -17.52223,-12.61569 -19.85236,-17.32703 l -1.70394,-3.44538 -0.97061,-17.77153 c -0.53381,-9.77433 -1.23982,-18.95605 -1.56897,-20.40383 l -0.59843,-2.63229 -7.27878,5.23997 c -4.0033,2.88199 -9.41841,5.90331 -12.03367,6.71405 l -4.75491,1.47407 -5.64638,6.23203 -5.64627,6.23203 -3.32139,0.13574 c -1.82666,0.0745 -4.14008,0.0527 -5.14068,-0.0487 l -1.8194,-0.18448 -11.63208,9.09303 C 801.1248,303.18594 712.59421,379.3674 704.80137,389.10585 l -2.92681,3.65748 v 4.99986 c 0,2.74992 -0.73889,7.61563 -1.64196,10.8127 l -1.64197,5.81286 -5.92448,6.07055 -5.92449,6.07057 -10.64906,6.83557 c -11.45597,7.35349 -21.68014,15.16484 -25.11578,19.18874 l -2.13607,2.50181 0.79729,46.16424 0.79742,46.16423 1.47833,3.7205 1.47834,3.7205 15.66402,17.00671 c 28.16115,30.57493 41.92763,48.69204 43.57315,57.34379 l 0.67481,3.54795 -1.92196,9.08398 -1.92196,9.08398 4.11567,6.28368 4.11567,6.28367 15.35147,14.5374 c 8.44323,7.99557 21.65673,21.6589 29.36341,30.36294 53.34983,60.25491 75.38364,80.06196 92.64637,83.28351 l 4.31653,0.80555 3.36284,3.2454 3.36284,3.24541 5.31012,0.71497 5.31021,0.71497 7.0204,3.7114 c 9.49911,5.02177 19.85102,12.16854 30.24518,20.88073 l 8.65233,7.25221 2.69028,-1.07554 c 6.94169,-2.7752 10.69377,-13.66171 14.24376,-41.32799 2.81099,-21.90745 4.79893,-31.56706 7.70689,-37.44941 l 2.17263,-4.39505 15.31026,-15.91268 c 8.42059,-8.75199 24.22005,-26.24586 35.10977,-38.87528 25.17628,-29.19829 27.55588,-31.68214 32.38748,-33.80492 l 3.9844,-1.75052 2.8726,0.75815 c 4.1522,1.09581 20.6831,12.68942 27.1179,19.01861 l 5.5083,5.4179 0.6882,3.85774 0.6884,3.85774 -14.5465,31.07406 c -8.0007,17.09073 -20.6102,44.06943 -28.0213,59.95264 -21.7236,46.55716 -27.0914,55.11686 -46.02963,73.40154 l -11.93057,11.51887 -0.69029,6.43255 -0.69017,6.43256 -3.22597,4.44419 -3.22597,4.44421 0.351,9.4613 0.35088,9.46133 -2.37817,6.68392 -2.3783,6.68395 -6.17026,5.92984 -6.17027,5.92985 -5.74481,1.79391 -5.7448,1.79394 h -8.15398 -8.15387 l -4.12959,2.94679 -4.1296,2.94679 h -6.32353 -6.32352 l -4.2462,9.02379 c -14.6166,31.0616 -54.11724,67.24891 -120.67177,110.54961 -7.70656,5.0139 -16.15647,10.6939 -18.77752,12.6221 l -4.76561,3.5058 -3.64161,0.556 -3.64162,0.5559 z M 1623.3031,-80.672752 c 0,-0.324148 0.2523,-0.589359 0.5604,-0.589359 0.3084,0 0.5606,0.265211 0.5606,0.589359 0,0.324148 -0.2522,0.589358 -0.5606,0.589358 -0.3081,0 -0.5604,-0.26521 -0.5604,-0.589358 z"
       id="path450" /></g></svg>
